<?xml version="1.0" encoding="utf-8"?>
<svg version="1.1" xmlns:xlink="http://www.w3.org/1999/xlink" width="16px" height="16px" xmlns="http://www.w3.org/2000/svg">
  <g transform="matrix(1 0 0 1 -810 -243 )">
    <path d="M 16 8  C 16 3.60000000000002  12.4 0  8 0  C 3.59999999999999 0  0 3.60000000000002  0 8  C 0 12.4  3.59999999999999 16  8 16  C 12.4 16  16 12.4  16 8  Z M 10.4571428571429 8.51428571428573  C 10.9714285714286 8  11.7714285714286 8.80000000000001  11.2571428571429 9.31428571428569  L 8.40000000000001 11.8857142857143  C 8.17142857142858 12.1142857142857  7.82857142857142 12.1142857142857  7.59999999999999 11.8857142857143  L 4.74285714285713 9.37142857142857  C 4.17142857142858 8.85714285714283  5.02857142857144 8.05714285714288  5.54285714285714 8.57142857142856  L 7.42857142857142 10.2285714285714  L 7.42857142857142 4.45714285714286  C 7.42857142857142 3.71428571428572  8.57142857142858 3.71428571428572  8.57142857142858 4.45714285714286  L 8.57142857142858 10.2285714285714  L 10.4571428571429 8.51428571428573  Z " fill-rule="nonzero" fill="#09bb07" stroke="none" transform="matrix(1 0 0 1 810 243 )" />
  </g>
</svg>